# xmcd CD database file
#
# Track frame offsets:
#	150
#	15267
#	30090
#	44605
#	57107
#	72362
#	87705
#	100630
#	114920
#	127355
#	141525
#	156187
#	167005
#	180935
#	196662
#	210447
#	223855
#	240310
#	253832
#	270112
#	283792
#	296102
#
# Disc length: 4139 seconds
#
# Revision: 0
# Processed by: cddbd v1.5.2PL0 Copyright (c) Steve Scherf et al.
# Submitted via: CDex 1.51
#
DISCID=3a102916
DTITLE=Various Artist - The Jazz Record Story
DYEAR=1900
DGENRE=Jazz
TTITLE0=Bedrock Blues
TTITLE1=103rd Street Boogie
TTITLE2=You've Got To Give Me Some
TTITLE3=Washboard Blues
TTITLE4=At The Jazz Band Ball
TTITLE5=No Pay Blues
TTITLE6=Royal Garden Blues
TTITLE7=The Mooche
TTITLE8=Eccentric
TTITLE9=Farewell Blues
TTITLE10=Sister Kate
TTITLE11=Too Busy
TTITLE12=Someday Sweetheart
TTITLE13=Wolverine Blues
TTITLE14=Buddy Bolden's Blues
TTITLE15=Ballin' The Jack
TTITLE16=Organ Grinder's Blues
TTITLE17=Droppin' Shucks
TTITLE18=Chimes Blues
TTITLE19=Basin Street Blues
TTITLE20=Swannee
TTITLE21=That's A Plenty
EXTD=
EXTT0=
EXTT1=
EXTT2=
EXTT3=
EXTT4=
EXTT5=
EXTT6=
EXTT7=
EXTT8=
EXTT9=
EXTT10=
EXTT11=
EXTT12=
EXTT13=
EXTT14=
EXTT15=
EXTT16=
EXTT17=
EXTT18=
EXTT19=
EXTT20=
EXTT21=
PLAYORDER=
